<?xml version="1.0" encoding="UTF-8"?>
<svg xmlns="http://www.w3.org/2000/svg" xmlns:xlink="http://www.w3.org/1999/xlink" width="30px" height="30px" viewBox="0 0 30 30" version="1.1">
<g id="surface1">
<path style=" stroke:none;fill-rule:nonzero;fill:rgb(0%,0%,0%);fill-opacity:1;" d="M 14.921875 8.835938 C 11.21875 8.835938 8.148438 11.851562 8.148438 15.609375 C 8.148438 19.363281 11.164062 22.382812 14.921875 22.382812 C 18.675781 22.382812 21.691406 19.3125 21.691406 15.609375 C 21.691406 11.90625 18.625 8.835938 14.921875 8.835938 Z M 14.921875 19.945312 C 12.539062 19.945312 10.582031 17.988281 10.582031 15.609375 C 10.582031 13.226562 12.539062 11.269531 14.921875 11.269531 C 17.300781 11.269531 19.257812 13.226562 19.257812 15.609375 C 19.257812 17.988281 17.300781 19.945312 14.921875 19.945312 Z M 14.921875 19.945312 "/>
<path style=" stroke:none;fill-rule:nonzero;fill:rgb(0%,0%,0%);fill-opacity:1;" d="M 23.492188 8.675781 C 23.492188 9.523438 22.804688 10.210938 21.957031 10.210938 C 21.109375 10.210938 20.421875 9.523438 20.421875 8.675781 C 20.421875 7.828125 21.109375 7.144531 21.957031 7.144531 C 22.804688 7.144531 23.492188 7.828125 23.492188 8.675781 Z M 23.492188 8.675781 "/>
<path style=" stroke:none;fill-rule:nonzero;fill:rgb(0%,0%,0%);fill-opacity:1;" d="M 25.925781 4.710938 C 24.550781 3.28125 22.59375 2.539062 20.371094 2.539062 L 9.472656 2.539062 C 4.867188 2.539062 1.800781 5.609375 1.800781 10.210938 L 1.800781 21.058594 C 1.800781 23.332031 2.539062 25.289062 4.019531 26.71875 C 5.449219 28.09375 7.355469 28.78125 9.523438 28.78125 L 20.316406 28.78125 C 22.59375 28.78125 24.496094 28.042969 25.871094 26.71875 C 27.300781 25.34375 28.042969 23.386719 28.042969 21.109375 L 28.042969 10.210938 C 28.042969 7.988281 27.300781 6.085938 25.925781 4.710938 Z M 25.714844 21.109375 C 25.714844 22.75 25.132812 24.074219 24.179688 24.972656 C 23.226562 25.871094 21.90625 26.347656 20.316406 26.347656 L 9.523438 26.347656 C 7.9375 26.347656 6.613281 25.871094 5.660156 24.972656 C 4.710938 24.019531 4.234375 22.699219 4.234375 21.058594 L 4.234375 10.210938 C 4.234375 8.625 4.710938 7.300781 5.660156 6.347656 C 6.5625 5.449219 7.9375 4.972656 9.523438 4.972656 L 20.421875 4.972656 C 22.011719 4.972656 23.332031 5.449219 24.285156 6.402344 C 25.183594 7.355469 25.714844 8.675781 25.714844 10.210938 Z M 25.714844 21.109375 "/>
</g>
</svg>
