<?xml version="1.0" encoding="UTF-8"?>
<svg xmlns="http://www.w3.org/2000/svg" xmlns:xlink="http://www.w3.org/1999/xlink" width="30px" height="30px" viewBox="0 0 30 30" version="1.1">
<g id="surface1">
<path style=" stroke:none;fill-rule:nonzero;fill:rgb(0%,0%,0%);fill-opacity:1;" d="M 20.320312 4.6875 C 21.625 4.6875 22.886719 5.234375 23.777344 6.1875 L 24.136719 6.570312 L 24.644531 6.46875 C 24.90625 6.414062 25.164062 6.355469 25.425781 6.289062 C 25.367188 6.367188 25.089844 6.644531 24.78125 6.921875 C 24.515625 7.15625 23.734375 7.886719 23.734375 7.886719 C 23.734375 7.886719 24.5 8.125 24.972656 8.179688 C 25.449219 8.234375 25.992188 8.144531 26.078125 8.132812 C 25.914062 8.265625 25.625 8.472656 25.445312 8.59375 L 25.039062 8.894531 L 25.0625 9.398438 C 25.070312 9.621094 25.078125 9.855469 25.078125 10.089844 C 25.078125 11.859375 24.734375 13.710938 24.082031 15.453125 C 23.398438 17.28125 22.414062 18.929688 21.152344 20.359375 C 19.804688 21.890625 18.210938 23.085938 16.398438 23.921875 C 14.417969 24.84375 12.222656 25.308594 9.867188 25.308594 C 8.171875 25.308594 6.503906 25.023438 4.914062 24.476562 C 5.496094 24.363281 6.0625 24.203125 6.621094 24.011719 C 7.890625 23.566406 9.074219 22.917969 10.140625 22.078125 L 12.210938 20.457031 L 9.578125 20.410156 C 8.050781 20.378906 6.667969 19.625 5.8125 18.421875 C 6.238281 18.394531 6.660156 18.316406 7.070312 18.207031 L 10.628906 17.023438 L 7.011719 16.382812 C 5.277344 16.039062 3.917969 14.75 3.421875 13.113281 C 3.878906 13.230469 4.324219 13.277344 4.820312 13.308594 C 4.820312 13.308594 6.683594 13.390625 8.089844 13.300781 C 7.328125 12.9375 5.371094 11.589844 5.371094 11.589844 C 4.054688 10.707031 3.261719 9.234375 3.261719 7.640625 C 3.261719 7.265625 3.308594 6.890625 3.390625 6.527344 C 4.675781 7.839844 6.144531 8.9375 7.792969 9.78125 C 9.960938 10.898438 12.296875 11.527344 14.742188 11.648438 L 15.984375 11.714844 L 15.703125 10.5 C 15.621094 10.15625 15.578125 9.792969 15.578125 9.417969 C 15.578125 6.8125 17.707031 4.6875 20.320312 4.6875 M 20.320312 3.75 C 17.1875 3.75 14.648438 6.292969 14.648438 9.429688 C 14.648438 9.875 14.695312 10.304688 14.796875 10.722656 C 10.078125 10.488281 5.894531 8.226562 3.101562 4.789062 C 2.613281 5.625 2.332031 6.601562 2.332031 7.640625 C 2.332031 9.609375 3.335938 11.351562 4.859375 12.371094 C 3.925781 12.34375 3.046875 12.085938 2.285156 11.660156 C 2.285156 11.683594 2.285156 11.707031 2.285156 11.730469 C 2.285156 14.484375 4.242188 16.773438 6.835938 17.296875 C 6.363281 17.425781 5.859375 17.496094 5.34375 17.496094 C 4.980469 17.496094 4.625 17.460938 4.277344 17.390625 C 5 19.644531 7.09375 21.285156 9.578125 21.332031 C 7.640625 22.855469 5.191406 23.765625 2.53125 23.765625 C 2.074219 23.765625 1.625 23.734375 1.179688 23.683594 C 3.6875 25.3125 6.667969 26.25 9.867188 26.25 C 20.308594 26.25 26.015625 17.59375 26.015625 10.089844 C 26.015625 9.84375 26.007812 9.597656 26 9.359375 C 27.105469 8.554688 28.066406 7.558594 28.828125 6.414062 C 27.808594 6.867188 26.71875 7.171875 25.570312 7.3125 C 26.742188 6.609375 27.644531 5.496094 28.066406 4.171875 C 26.96875 4.820312 25.757812 5.296875 24.460938 5.546875 C 23.425781 4.441406 21.949219 3.75 20.320312 3.75 Z M 20.320312 3.75 "/>
</g>
</svg>
