<?xml version="1.0" encoding="UTF-8"?>
<svg xmlns="http://www.w3.org/2000/svg" xmlns:xlink="http://www.w3.org/1999/xlink" width="30px" height="30px" viewBox="0 0 30 30" version="1.1">
<g id="surface1">
<path style=" stroke:none;fill-rule:nonzero;fill:rgb(0%,0%,0%);fill-opacity:1;" d="M 16.875 11.25 L 16.875 9.015625 C 16.875 8.011719 17.097656 7.5 18.664062 7.5 L 20.625 7.5 L 20.625 3.75 L 17.351562 3.75 C 13.335938 3.75 12.011719 5.589844 12.011719 8.75 L 12.011719 11.25 L 9.375 11.25 L 9.375 15 L 12.011719 15 L 12.011719 26.25 L 16.875 26.25 L 16.875 15 L 20.179688 15 L 20.625 11.25 Z M 19.347656 14.0625 L 15.9375 14.0625 L 15.9375 25.3125 L 12.949219 25.3125 L 12.949219 14.0625 L 10.3125 14.0625 L 10.3125 12.1875 L 12.949219 12.1875 L 12.949219 8.75 C 12.949219 7.3125 13.265625 6.335938 13.859375 5.714844 C 14.515625 5.007812 15.679688 4.6875 17.351562 4.6875 L 19.6875 4.6875 L 19.6875 6.5625 L 18.664062 6.5625 C 17.960938 6.5625 17.050781 6.625 16.488281 7.25 C 16.011719 7.773438 15.9375 8.425781 15.9375 9.011719 L 15.9375 12.1875 L 19.570312 12.1875 Z M 19.347656 14.0625 "/>
</g>
</svg>
