<svg xmlns="http://www.w3.org/2000/svg" width="26" height="24" viewBox="0 0 26 24"><g transform="translate(-2728 569)"><path d="M13,.84c-3.072,0-6.828.7-9,2.52S1,8.34,1,10.92a8.305,8.305,0,0,0,3,6.72c2.172,1.825,5.928,2.52,9,2.52a12.032,12.032,0,0,0,8-2.52,8.305,8.305,0,0,0,3-6.72c0-2.58-.828-5.735-3-7.56A12.032,12.032,0,0,0,13,.84M13,0c6.9,0,12,5.121,12,10.92S19.9,21,13,21,0,16.719,0,10.92,6.1,0,13,0Z" transform="translate(2729 -569)" fill="#34cef4"/><text transform="translate(2740 -561)" fill="#260c08" font-size="6" font-family="Bitter-Regular, Bitter"><tspan x="-11.007" y="0">TRAVEL</tspan></text><text transform="translate(2741.5 -547)" fill="#260c08" font-size="6" font-family="Bitter-Regular, Bitter"><tspan x="-6.408" y="0">MAP</tspan></text></g></svg>